<svg width="25" height="24" viewBox="0 0 25 24" fill="none" xmlns="http://www.w3.org/2000/svg">
<path d="M20.1751 2.75802C18.9081 1.70368 17.4364 0.923183 15.8529 0.46572C14.2693 0.00825769 12.6081 -0.116257 10.9741 0.100021C7.95114 0.492739 5.19096 2.02119 3.254 4.37503C1.31703 6.72887 0.348479 9.73164 0.545 12.7736C0.741521 15.8156 2.08838 18.6688 4.31211 20.7539C6.53584 22.8389 9.46974 23.9995 12.5181 24H19.5001C20.8257 23.9984 22.0965 23.4711 23.0339 22.5338C23.9712 21.5965 24.4985 20.3256 24.5001 19V11.309V11.246C24.3942 9.61147 23.9561 8.01568 23.2125 6.55624C22.4688 5.0968 21.4353 3.80438 20.1751 2.75802ZM8.50008 7.00002H12.5001C12.7653 7.00002 13.0196 7.10538 13.2072 7.29292C13.3947 7.48045 13.5001 7.73481 13.5001 8.00002C13.5001 8.26524 13.3947 8.51959 13.2072 8.70713C13.0196 8.89466 12.7653 9.00002 12.5001 9.00002H8.50008C8.23486 9.00002 7.98051 8.89466 7.79297 8.70713C7.60543 8.51959 7.50008 8.26524 7.50008 8.00002C7.50008 7.73481 7.60543 7.48045 7.79297 7.29292C7.98051 7.10538 8.23486 7.00002 8.50008 7.00002ZM16.5001 17H8.50008C8.23486 17 7.98051 16.8947 7.79297 16.7071C7.60543 16.5196 7.50008 16.2652 7.50008 16C7.50008 15.7348 7.60543 15.4805 7.79297 15.2929C7.98051 15.1054 8.23486 15 8.50008 15H16.5001C16.7653 15 17.0196 15.1054 17.2072 15.2929C17.3947 15.4805 17.5001 15.7348 17.5001 16C17.5001 16.2652 17.3947 16.5196 17.2072 16.7071C17.0196 16.8947 16.7653 17 16.5001 17ZM16.5001 13H8.50008C8.23486 13 7.98051 12.8947 7.79297 12.7071C7.60543 12.5196 7.50008 12.2652 7.50008 12C7.50008 11.7348 7.60543 11.4805 7.79297 11.2929C7.98051 11.1054 8.23486 11 8.50008 11H16.5001C16.7653 11 17.0196 11.1054 17.2072 11.2929C17.3947 11.4805 17.5001 11.7348 17.5001 12C17.5001 12.2652 17.3947 12.5196 17.2072 12.7071C17.0196 12.8947 16.7653 13 16.5001 13Z" fill="#0E9C85"/>
</svg>
