<svg width="24" height="24" viewBox="0 0 24 24" fill="none" xmlns="http://www.w3.org/2000/svg">
<path fill-rule="evenodd" clip-rule="evenodd" d="M21.5099 1.18385C21.8027 1.30523 22.0688 1.48314 22.2928 1.70739C22.517 1.93141 22.695 2.19744 22.8163 2.49026C22.9377 2.78308 23.0002 3.09695 23.0002 3.41393C23.0002 3.73091 22.9377 4.04478 22.8163 4.3376C22.695 4.63042 22.517 4.89644 22.2928 5.12046L19.0665 8.34587L15.6543 4.93371L18.8797 1.70739C19.1037 1.48314 19.3698 1.30523 19.6626 1.18385C19.9554 1.06248 20.2693 1 20.5863 1C20.9032 1 21.2171 1.06248 21.5099 1.18385ZM1 21.1113C1.00021 20.1354 1.38804 19.1996 2.0782 18.5096L14.3533 6.23454L17.7655 9.6467L5.49035 21.9218C4.80041 22.612 3.86457 22.9998 2.88869 23H1V21.1113Z" fill="#222222" fill-opacity="0.4"/>
</svg>
