<svg width="24" height="24" viewBox="0 0 24 24" fill="none" xmlns="http://www.w3.org/2000/svg">
<path d="M12.7778 5.77778C12.7778 5.34822 12.4296 5 12 5C11.5704 5 11.2222 5.34822 11.2222 5.77778V11.2222H5.77778C5.34822 11.2222 5 11.5704 5 12C5 12.4296 5.34822 12.7778 5.77778 12.7778H11.2222V18.2222C11.2222 18.6518 11.5704 19 12 19C12.4296 19 12.7778 18.6518 12.7778 18.2222V12.7778H18.2222C18.6518 12.7778 19 12.4296 19 12C19 11.5704 18.6518 11.2222 18.2222 11.2222H12.7778V5.77778Z" fill="black"/>
</svg>
