<svg width="140" height="34" viewBox="0 0 140 34" fill="none" xmlns="http://www.w3.org/2000/svg">
<path d="M15.593 0C8.28934 0 2.36853 6.00491 2.36853 13.4123C2.36853 13.6867 2.58782 13.9091 2.85833 13.9091H33.8787C34.1492 13.9091 34.3685 13.6867 34.3685 13.4123C34.3685 6.00491 28.4477 0 21.144 0H15.593Z" fill="white"/>
<path d="M20.9492 34C28.3605 34 34.3685 27.9066 34.3685 20.39C34.3685 20.2248 34.2365 20.0909 34.0736 20.0909H2.66346C2.50058 20.0909 2.36853 20.2248 2.36853 20.39C2.36853 27.9066 8.37658 34 15.7879 34H20.9492Z" fill="white"/>
<path d="M29.0352 17.7727C28.6144 17.7727 28.2733 17.4268 28.2733 17C28.2733 16.5732 28.6144 16.2273 29.0352 16.2273H33.6066C34.0274 16.2273 34.3685 16.5732 34.3685 17C34.3685 17.4268 34.0274 17.7727 33.6066 17.7727H29.0352Z" fill="white"/>
<path d="M20.6542 17C20.6542 17.4268 20.9954 17.7727 21.4161 17.7727H25.9876C26.4084 17.7727 26.7495 17.4268 26.7495 17C26.7495 16.5732 26.4084 16.2273 25.9876 16.2273H21.4161C20.9954 16.2273 20.6542 16.5732 20.6542 17Z" fill="white"/>
<path d="M12.2733 17.7727C11.8525 17.7727 11.5114 17.4268 11.5114 17C11.5114 16.5732 11.8525 16.2273 12.2733 16.2273H16.8447C17.2655 16.2273 17.6066 16.5732 17.6066 17C17.6066 17.4268 17.2655 17.7727 16.8447 17.7727H12.2733Z" fill="white"/>
<path d="M2.36853 17C2.36853 17.4268 2.70965 17.7727 3.13044 17.7727H7.70186C8.12265 17.7727 8.46377 17.4268 8.46377 17C8.46377 16.5732 8.12265 16.2273 7.70186 16.2273H3.13044C2.70965 16.2273 2.36853 16.5732 2.36853 17Z" fill="white"/>
<path d="M137.483 18.7943C137.483 18.7943 133.138 18.7943 124.449 18.7943C124.696 19.8125 125.235 20.6182 126.065 21.2113C126.896 21.8045 127.909 22.1011 129.105 22.1011C129.935 22.1011 130.627 21.9775 131.181 21.7303C131.632 21.5208 132.351 21.193 132.885 20.7469C133.109 20.5594 133.383 20.4254 133.675 20.4254H135.237C136.054 20.4254 136.681 21.4445 136.28 22.1572C136.167 22.3588 136.035 22.5621 135.867 22.7683C134.127 24.7949 131.903 25.8082 129.194 25.8082C127.929 25.8082 126.732 25.5808 125.605 25.1261C124.478 24.6714 123.51 24.0584 122.699 23.2873C121.898 22.5064 121.261 21.5771 120.786 20.4996C120.312 19.4121 120.074 18.2654 120.074 17.0593C120.074 15.4381 120.465 13.9503 121.246 12.5959C122.037 11.2317 123.109 10.1591 124.464 9.37809C125.828 8.58723 127.321 8.1918 128.942 8.1918C130.593 8.1918 132.081 8.58229 133.405 9.36326C134.73 10.1344 135.763 11.2119 136.504 12.5959C137.256 13.97 137.631 15.5171 137.631 17.2373C137.631 17.7909 137.582 18.3099 137.483 18.7943ZM124.33 15.2354H133.657C133.4 14.1579 132.871 13.3324 132.071 12.759C131.27 12.1856 130.247 11.899 129.001 11.899C127.795 11.899 126.792 12.1856 125.991 12.759C125.2 13.3225 124.647 14.148 124.33 15.2354Z" fill="white"/>
<path d="M110.844 25.4078C110.436 25.4078 110.07 25.1621 109.917 24.7836C109.251 23.1291 107.261 18.1861 103.947 9.95452C103.682 9.29736 104.163 8.57735 104.872 8.57735C105.462 8.57735 106.23 8.57735 107.174 8.57735C107.599 8.57735 107.978 8.8451 108.118 9.24688C108.514 10.3832 109.414 12.9661 110.818 16.9955C111.131 17.8924 112.4 17.8925 112.708 16.9941C113.307 15.249 114.192 12.6686 115.364 9.25299C115.503 8.8489 115.882 8.57735 116.309 8.57735C116.823 8.57735 117.614 8.57735 118.682 8.57735C119.39 8.57735 119.876 9.29176 119.611 9.94893C118.714 12.1771 116.724 17.1199 113.64 24.7774C113.488 25.156 113.12 25.4078 112.712 25.4078C112.238 25.4078 111.564 25.4078 110.844 25.4078Z" fill="white"/>
<path d="M94.6135 8.1918C96.215 8.1918 97.6979 8.58723 99.0621 9.37809C100.426 10.169 101.504 11.2465 102.295 12.6107C103.086 13.9651 103.481 15.4381 103.481 17.0297C103.481 18.6114 103.081 20.0794 102.28 21.4338C101.489 22.7782 100.407 23.8459 99.0325 24.6368C97.6583 25.4177 96.1656 25.8082 94.5542 25.8082C92.9329 25.8082 91.4303 25.4177 90.0463 24.6368C88.6722 23.8459 87.5848 22.7782 86.784 21.4338C85.9833 20.0794 85.5829 18.6114 85.5829 17.0297C85.5829 15.8236 85.8152 14.6769 86.2798 13.5894C86.7543 12.4921 87.392 11.553 88.1927 10.772C89.0034 9.98112 89.9672 9.35338 91.0843 8.88875C92.2014 8.42412 93.3778 8.1918 94.6135 8.1918ZM94.4504 11.899C93.1455 11.899 92.0185 12.4031 91.0695 13.4115C90.1303 14.4099 89.6608 15.6061 89.6608 17C89.6608 18.4038 90.1353 19.6049 91.0843 20.6034C92.0333 21.6018 93.1751 22.1011 94.5097 22.1011C95.8542 22.1011 97.0059 21.6068 97.9648 20.6182C98.9237 19.6197 99.4032 18.4236 99.4032 17.0297C99.4032 15.5863 98.9237 14.3704 97.9648 13.3818C97.0059 12.3932 95.8344 11.899 94.4504 11.899Z" fill="white"/>
<path d="M75.0398 8.1918C76.6413 8.1918 78.1241 8.58723 79.4884 9.37809C80.8526 10.169 81.9302 11.2465 82.721 12.6107C83.5119 13.9651 83.9073 15.4381 83.9073 17.0297C83.9073 18.6114 83.5069 20.0794 82.7062 21.4338C81.9153 22.7782 80.8328 23.8459 79.4587 24.6368C78.0846 25.4177 76.5919 25.8082 74.9805 25.8082C73.3592 25.8082 71.8566 25.4177 70.4726 24.6368C69.0985 23.8459 68.011 22.7782 67.2103 21.4338C66.4095 20.0794 66.0092 18.6114 66.0092 17.0297C66.0092 15.8236 66.2415 14.6769 66.7061 13.5894C67.1806 12.4921 67.8182 11.553 68.619 10.772C69.4296 9.98112 70.3935 9.35338 71.5106 8.88875C72.6277 8.42412 73.8041 8.1918 75.0398 8.1918ZM74.8767 11.899C73.5718 11.899 72.4448 12.4031 71.4957 13.4115C70.5566 14.4099 70.087 15.6061 70.087 17C70.087 18.4038 70.5615 19.6049 71.5106 20.6034C72.4596 21.6018 73.6014 22.1011 74.936 22.1011C76.2805 22.1011 77.4321 21.6068 78.3911 20.6182C79.35 19.6197 79.8294 18.4236 79.8294 17.0297C79.8294 15.5863 79.35 14.3704 78.3911 13.3818C77.4321 12.3932 76.2607 11.899 74.8767 11.899Z" fill="white"/>
<path d="M39.3693 25.4078C38.817 25.4078 38.3685 24.9629 38.3685 24.4106C38.3685 22.4266 38.3685 17.4824 38.3685 9.57789C38.3685 9.02561 38.8154 8.57735 39.3677 8.57735C39.7949 8.57735 40.359 8.57735 41.0601 8.57735C41.6124 8.57735 42.0609 9.02469 42.0609 9.57698C42.0609 9.75015 42.0609 9.94583 42.0609 10.164C42.654 9.45224 43.2817 8.94806 43.9441 8.65149C44.6163 8.34503 45.4467 8.1918 46.4353 8.1918C47.6117 8.1918 48.5855 8.39446 49.3565 8.79978C50.1375 9.20509 50.8147 9.87238 51.3881 10.8016C52.0702 9.89215 52.8413 9.22981 53.7013 8.81461C54.5614 8.3994 55.5846 8.1918 56.7709 8.1918C58.0955 8.1918 59.2621 8.43895 60.2704 8.93323C61.2886 9.41764 62.0647 10.1096 62.5985 11.0092C63.2609 12.1758 63.592 13.7377 63.592 15.6951V24.4078C63.592 24.9601 63.1443 25.4078 62.592 25.4078H60.5586C60.0064 25.4078 59.5586 24.9601 59.5586 24.4078V16.1696C59.5586 15.3095 59.4944 14.6225 59.3659 14.1084C59.2374 13.5944 59.0298 13.1792 58.7431 12.8628C58.1895 12.2202 57.4085 11.899 56.4001 11.899C55.0458 11.899 54.0869 12.4624 53.5234 13.5894C53.1774 14.2913 53.0044 15.4677 53.0044 17.1186V24.4078C53.0044 24.9601 52.5567 25.4078 52.0044 25.4078H49.9562C49.4039 25.4078 48.9562 24.9624 48.9562 24.4101C48.9562 23.0512 48.9562 20.3044 48.9562 16.1696C48.9562 14.6077 48.7041 13.5153 48.1999 12.8925C47.6265 12.2301 46.7961 11.899 45.7087 11.899C44.2753 11.899 43.3065 12.5069 42.8023 13.7229C42.5354 14.3852 42.4019 15.5171 42.4019 17.1186C42.4019 17.1186 42.4019 19.5484 42.4019 24.4078C42.4019 24.9601 41.9545 25.4078 41.4022 25.4078C40.9078 25.4078 40.2302 25.4078 39.3693 25.4078Z" fill="white"/>
</svg>
