<svg width="144" height="40" fill="none" viewBox="0 0 144 40" xmlns="http://www.w3.org/2000/svg">
        <symbol id="logo">
        <rect width="144" height="40" rx="16" fill="#16F4D0"/>
        <path fill-rule="evenodd" clip-rule="evenodd" d="M113 19.5C113 13.1487 118.149 8 124.5 8C130.851 8 136 13.1487 136 19.5V20.5C136 26.8513 130.851 32 124.5 32C118.149 32 113 26.8513 113 20.5V19.5ZM126.614 28.2716C129.631 28.5851 132.209 26.1215 132.034 23.094C132.012 22.6995 131.941 22.309 131.825 21.9313L130.135 16.4373C130.045 16.1474 130 15.8458 130 15.5425C130 13.8622 128.638 12.5 126.957 12.5H124.937C124.646 12.5 124.354 12.4746 124.068 12.4247C120.429 11.7913 117.215 14.9122 117.778 18.5628L117.864 19.1155C117.954 19.7017 117.954 20.2983 117.864 20.8845L117.675 22.1073C117.15 25.507 120.01 28.4708 123.427 28.0677C123.808 28.0227 124.193 28.02 124.574 28.0597L126.614 28.2716Z" fill="white"/>
        <path d="M13.5 28.25C13.5 29.7688 12.2688 31 10.75 31C9.23122 31 8 29.7688 8 28.25V12.2738C8 10.755 9.23122 9.52381 10.75 9.52381H12.7362C13.158 9.52381 13.5 9.86578 13.5 10.2876C13.5 11.0303 14.4526 11.3361 14.8849 10.7322L15 10.5714C15.5 10.0476 16.7 9 17.5 9H22L23.0942 10.003C24.7922 11.5595 27.3433 11.7285 29.2317 10.4096C30.0573 9.833 31.04 9.52381 32.047 9.52381H34.2777C35.4048 9.52381 36.5107 9.82955 37.4778 10.4085C38.7809 11.1885 39.7541 12.4177 40.2146 13.865L40.5635 14.9616C40.8528 15.8706 41 16.8189 41 17.7729V28.5C41 29.8807 39.8807 31 38.5 31C37.1193 31 36 29.8807 36 28.5V19.0739C36 17.9964 35.5421 16.9697 34.7404 16.2499C33.4282 15.0716 31.4772 14.9524 30.0314 15.9622L29.7845 16.1347C28.6662 16.9156 28 18.1936 28 19.5575V28C28 29.6569 26.6569 31 25 31C23.3431 31 22 29.6569 22 28V19.5031C22 18.1633 21.3849 16.8976 20.3313 16.0699L20.2169 15.9799C18.8786 14.9285 17.0343 14.8002 15.5634 15.6562C14.2859 16.3998 13.5 17.7664 13.5 19.2445V28.25Z" fill="white"/>
        <path d="M43 17.6786C43 12.8855 46.8855 9 51.6786 9H55.3214C60.1145 9 64 12.8855 64 17.6786C64 17.8561 63.8561 18 63.6786 18H43.3214C43.1439 18 43 17.8561 43 17.6786Z" fill="white"/>
        <path d="M60 20C60 20.2761 60.2239 20.5 60.5 20.5H63.5C63.7761 20.5 64 20.2761 64 20C64 19.7239 63.7761 19.5 63.5 19.5H60.5C60.2239 19.5 60 19.7239 60 20Z" fill="white"/>
        <path d="M55.5 20.5C55.2239 20.5 55 20.2761 55 20C55 19.7239 55.2239 19.5 55.5 19.5H58.5C58.7761 19.5 59 19.7239 59 20C59 20.2761 58.7761 20.5 58.5 20.5H55.5Z" fill="white"/>
        <path d="M49 20C49 20.2761 49.2239 20.5 49.5 20.5H52.5C52.7761 20.5 53 20.2761 53 20C53 19.7239 52.7761 19.5 52.5 19.5H49.5C49.2239 19.5 49 19.7239 49 20Z" fill="white"/>
        <path d="M43.5 20.5C43.2239 20.5 43 20.2761 43 20C43 19.7239 43.2239 19.5 43.5 19.5H46.5C46.7761 19.5 47 19.7239 47 20C47 20.2761 46.7761 20.5 46.5 20.5H43.5Z" fill="white"/>
        <path d="M74.6786 9C69.8855 9 66 12.8855 66 17.6786C66 17.8561 66.1439 18 66.3214 18H86.6786C86.8561 18 87 17.8561 87 17.6786C87 12.8855 83.1145 9 78.3214 9H74.6786Z" fill="white"/>
        <path d="M78.1936 31C83.0572 31 87 27.0572 87 22.1935C87 22.0867 86.9133 22 86.8064 22H66.1936C66.0867 22 66 22.0867 66 22.1935C66 27.0572 69.9428 31 74.8064 31H78.1936Z" fill="white"/>
        <path d="M83.5 20.5C83.2239 20.5 83 20.2761 83 20C83 19.7239 83.2239 19.5 83.5 19.5H86.5C86.7761 19.5 87 19.7239 87 20C87 20.2761 86.7761 20.5 86.5 20.5H83.5Z" fill="white"/>
        <path d="M78 20C78 20.2761 78.2239 20.5 78.5 20.5H81.5C81.7761 20.5 82 20.2761 82 20C82 19.7239 81.7761 19.5 81.5 19.5H78.5C78.2239 19.5 78 19.7239 78 20Z" fill="white"/>
        <path d="M72.5 20.5C72.2239 20.5 72 20.2761 72 20C72 19.7239 72.2239 19.5 72.5 19.5H75.5C75.7761 19.5 76 19.7239 76 20C76 20.2761 75.7761 20.5 75.5 20.5H72.5Z" fill="white"/>
        <path d="M66 20C66 20.2761 66.2239 20.5 66.5 20.5H69.5C69.7761 20.5 70 20.2761 70 20C70 19.7239 69.7761 19.5 69.5 19.5H66.5C66.2239 19.5 66 19.7239 66 20Z" fill="white"/>
        <path d="M91.5392 9C89.4063 9 87.981 11.1972 88.8505 13.1449L95.5267 28.0983C96.3148 29.8633 98.067 31 100 31C101.933 31 103.685 29.8633 104.473 28.0983L111.171 13.0958C112.031 11.1712 110.622 9 108.515 9C107.1 9 105.89 10.0178 105.648 11.4118L103.334 24.735C103.244 25.2547 102.793 25.6341 102.265 25.6341H98.3185C97.7834 25.6341 97.3218 25.2588 97.2126 24.735L94.4218 11.3437C94.1372 9.97843 92.9339 9 91.5392 9Z" fill="white"/>
        <path d="M55.1935 31C60.0572 31 64 27.0572 64 22.1935C64 22.0867 63.9133 22 63.8064 22H43.1936C43.0867 22 43 22.0867 43 22.1935C43 27.0572 46.9428 31 51.8065 31H55.1935Z" fill="white"/>
        </symbol>
</svg>